<?xml version="1.0" encoding="UTF-8"?>
<svg id="Capa_1" xmlns="http://www.w3.org/2000/svg" version="1.1" viewBox="0 0 24 24">
  <!-- Generator: Adobe Illustrator 29.0.0, SVG Export Plug-In . SVG Version: 2.1.0 Build 186)  -->
  <path d="M12,.2C5.5.2.2,5.5.2,12s5.3,11.8,11.8,11.8,11.8-5.3,11.8-11.8S18.5.2,12,.2ZM9.8,4.8c0-.4.3-.7.7-.7h3.1c.4,0,.7.3.7.7v2.7c0,.4-.3.7-.7.7h-3.1c-.4,0-.7-.3-.7-.7v-2.7ZM14.2,19.2c0,.4-.3.7-.7.7h-3.1c-.4,0-.7-.3-.7-.7v-7.7c0-.4.3-.7.7-.7h3.1c.4,0,.7.3.7.7v7.7Z"/>
</svg>